<svg width="18" height="18" viewBox="0 0 18 18" fill="none" xmlns="http://www.w3.org/2000/svg"><path d="M17.4472 9.24767C17.1092 9.21255 16.8064 9.4584 16.7712 9.79557C16.5776 11.6992 15.6834 13.4588 14.2577 14.7512C12.8213 16.0543 10.9626 16.7707 9.0193 16.7707C6.93873 16.7707 4.98138 15.9629 3.50985 14.4949C2.04184 13.0268 1.23214 11.074 1.23214 8.99831C1.23214 6.94369 2.02776 5.00497 3.47465 3.54391C4.91802 2.08285 6.8472 1.261 8.8996 1.22939C9.24108 1.22588 9.51215 0.944907 9.50511 0.604227C9.50159 0.263546 9.21996 -0.00689054 8.87848 0.000133797C6.49868 0.0352555 4.26674 0.987053 2.59454 2.67992C0.922348 4.3763 0 6.62057 0 8.99831C0 11.4041 0.93995 13.6625 2.64383 15.3624C4.34771 17.0623 6.61485 18 9.02282 18C11.2724 18 13.4269 17.1711 15.0885 15.6609C16.7396 14.1647 17.7746 12.1241 17.9963 9.9185C18.0316 9.58484 17.7851 9.2828 17.4472 9.24767Z" fill="#DDD0D6"/><path d="M8.43137 10.628C8.3856 10.5577 8.37152 10.5296 8.35392 10.5085C7.6604 9.75694 6.96688 9.00182 6.27336 8.25022C6.01637 7.96924 5.7629 7.68827 5.49887 7.41432C5.22075 7.12632 4.81591 7.11228 4.53779 7.36515C4.24912 7.62505 4.24912 8.05002 4.53779 8.36612C5.63264 9.55323 6.72749 10.7403 7.82234 11.9239C8.20254 12.3384 8.57923 12.3419 8.98055 11.9415C11.7969 9.1388 14.6097 6.33609 17.426 3.53689C17.4788 3.4842 17.5352 3.42801 17.5809 3.3683C17.8802 2.96792 17.6584 2.39894 17.1655 2.30763C16.8733 2.25143 16.6621 2.38841 16.465 2.58509C13.8387 5.20166 11.209 7.81822 8.57923 10.4348C8.53346 10.4804 8.50178 10.5402 8.43137 10.628Z" fill="#DDD0D6"/></svg>
